<svg xmlns="http://www.w3.org/2000/svg" viewBox="0 0 19.99 19.99"><title>Asset 1</title><g id="Layer_2" data-name="Layer 2"><g id="Layer_1-2" data-name="Layer 1"><g id="Layer_2-2" data-name="Layer 2"><g id="Layer_1-2-2" data-name="Layer 1-2"><path d="M6.75,20H7a.44.44,0,0,0,.33-.47v-2H5.71a2.28,2.28,0,0,1-1.54-.73,4.37,4.37,0,0,1-.74-1.11,2.86,2.86,0,0,0-.94-1.1,2,2,0,0,1-.34-.33S2,14.11,2,14s.14-.11.23-.13a1.51,1.51,0,0,1,1.34.41,9.48,9.48,0,0,1,.8,1,2.33,2.33,0,0,0,1.06.79,2.4,2.4,0,0,0,1.76-.13.46.46,0,0,0,.17-.23c.13-.3.24-.6.37-.9A2.21,2.21,0,0,1,8,14.45H7.81c-.56-.17-1.13-.17-1.67-.37a4.06,4.06,0,0,1-2.53-2.17A6,6,0,0,1,3.1,9.74,4.44,4.44,0,0,1,4,6.43.49.49,0,0,0,4.13,6a4,4,0,0,1,.16-2.44.27.27,0,0,1,.31-.2,6.71,6.71,0,0,1,.69.13,7.14,7.14,0,0,1,1.86.84.73.73,0,0,0,.56.09c.4-.09.79-.16,1.19-.21a10.62,10.62,0,0,1,3.7.21.71.71,0,0,0,.47-.09l1-.56a3.17,3.17,0,0,1,1.43-.41.31.31,0,0,1,.33.21,3.36,3.36,0,0,1,.21,2,1.43,1.43,0,0,0,.3,1.43h0A4.07,4.07,0,0,1,17,8.81a5.85,5.85,0,0,1-.5,3,3.83,3.83,0,0,1-1.81,1.93,7.4,7.4,0,0,1-2,.63l-.6.11.23.29a2.7,2.7,0,0,1,.57,1.58v2.86a2,2,0,0,0,0,.26.51.51,0,0,0,.29.46h.14A10.22,10.22,0,0,0,20,10.37v-.21A10.12,10.12,0,0,0,10,0,10.12,10.12,0,0,0,0,10.15v.2A10.22,10.22,0,0,0,6.75,20Z"/></g></g></g></g></svg>