<svg xmlns="http://www.w3.org/2000/svg" viewBox="0 0 20 19.96"><title>tw</title><g id="Layer_2" data-name="Layer 2"><g id="Layer_1-2" data-name="Layer 1"><path d="M19.91,7.92,19.78,8s0,.08,0,.12A1.76,1.76,0,0,0,19.91,7.92Z"/><path d="M0,12.9a9.84,9.84,0,0,0,.79.91c-.06-.14-.1-.28-.16-.42A4.92,4.92,0,0,1,0,12.9Z"/><path d="M20,9.45h0v0Z"/><path d="M17.61,10.35C16.06,16.64,6.09,19.46.79,13.81A10,10,0,0,0,20,10c0-.17,0-.33,0-.49A3,3,0,0,1,17.61,10.35Z"/><path d="M7.42,12.7c-1.25.18-2.16-1-.62-1.7A2.32,2.32,0,0,1,4.33,9.79,1.83,1.83,0,0,1,5.7,9.25c-1.51-.36-2.07-1.1-2.24-2a4.19,4.19,0,0,1,1.23-.15A2.72,2.72,0,0,1,3,4.59,39.48,39.48,0,0,1,8.11,6.85,7.46,7.46,0,0,1,9.63,8.07c.72-1.9,1.61-3.86,3.13-4.83a1.07,1.07,0,0,1-.3.59A3,3,0,0,1,14,3.09c-.07.43-.68.67-1.05.81.28-.09,1.78-.76,1.94-.38s-1,.63-1.24.71l-.46.17a4.3,4.3,0,0,1,4.24,3.32c0,.14.08.3.11.46A3.6,3.6,0,0,0,19.78,8,10,10,0,1,0,.63,13.39,5.3,5.3,0,0,0,7.42,12.7Z"/><path d="M17.73,9.22A4.87,4.87,0,0,0,20,9.45,10,10,0,0,0,19.8,8.1,2.5,2.5,0,0,1,17.73,9.22Z"/></g></g></svg>